<?xml version="1.0" standalone="no"?>
<!DOCTYPE svg PUBLIC "-//W3C//DTD SVG 20010904//EN"
 "http://www.w3.org/TR/2001/REC-SVG-20010904/DTD/svg10.dtd">
<svg version="1.0" xmlns="http://www.w3.org/2000/svg"
 width="500.000000pt" height="500.000000pt" viewBox="0 0 500.000000 500.000000"
 preserveAspectRatio="xMidYMid meet">

<g transform="translate(0.000000,500.000000) scale(0.100000,-0.100000)"
fill="#000000" stroke="none">
<path d="M2320 4994 c-19 -2 -78 -9 -130 -14 -191 -21 -419 -80 -620 -160
-570 -227 -1034 -656 -1309 -1211 -121 -242 -192 -466 -238 -744 -22 -136 -25
-527 -4 -675 66 -481 257 -922 554 -1283 529 -642 1373 -986 2187 -891 593 68
1092 307 1511 724 386 383 631 883 711 1450 19 138 16 495 -6 640 -63 424
-200 774 -431 1105 -340 486 -844 835 -1425 986 -182 48 -351 69 -570 74 -107
2 -211 1 -230 -1z m550 -124 c270 -45 438 -99 675 -215 266 -130 458 -266 655
-464 374 -376 605 -851 682 -1406 19 -138 16 -477 -6 -615 -48 -313 -128 -554
-275 -825 -192 -355 -506 -684 -854 -894 -515 -311 -1121 -419 -1711 -305
-659 128 -1237 534 -1595 1121 -160 262 -277 600 -322 933 -20 145 -18 509 4
649 131 828 646 1503 1410 1847 202 91 488 167 727 193 140 16 466 6 610 -19z"/>
<path d="M2328 4643 c-45 -5 -45 -4 -23 -163 8 -58 15 -121 15 -141 0 -33 -3
-37 -30 -41 -17 -3 -33 0 -37 5 -5 8 -42 270 -43 305 0 8 -15 12 -42 12 -73 0
-73 3 -50 -177 12 -87 26 -171 32 -185 21 -46 88 -61 153 -35 18 7 54 14 81
16 28 1 53 4 56 6 3 2 -4 86 -17 187 -12 101 -23 191 -23 201 0 10 -7 16 -17
15 -10 -1 -35 -3 -55 -5z"/>
<path d="M2786 4622 c-7 -12 -70 -392 -65 -396 2 -2 27 -7 54 -11 l51 -6 24
143 25 143 42 3 c45 3 49 8 55 77 4 36 -18 43 -62 21 -25 -12 -30 -12 -30 0 0
12 -11 16 -72 29 -10 2 -20 0 -22 -3z"/>
<path d="M1518 4560 c-81 -42 -98 -60 -98 -107 0 -33 146 -341 185 -390 33
-41 77 -44 153 -8 122 57 140 89 98 180 l-25 56 -38 -17 c-21 -9 -44 -18 -50
-21 -10 -4 -9 -11 1 -31 29 -58 29 -70 -3 -86 -17 -9 -32 -16 -35 -16 -9 0
-177 341 -174 352 2 5 18 16 36 24 31 13 32 12 48 -19 9 -18 18 -33 19 -35 5
-6 95 42 95 50 0 19 -31 67 -56 87 -38 30 -68 26 -156 -19z"/>
<path d="M3325 4456 c-36 -16 -85 -99 -85 -146 0 -48 15 -67 80 -100 64 -32
66 -35 48 -75 -13 -29 -27 -31 -69 -9 -26 13 -29 19 -24 42 5 25 1 30 -40 50
l-46 22 -11 -28 c-16 -41 -14 -89 6 -111 26 -29 142 -81 181 -81 27 0 40 8 65
38 17 20 37 57 44 82 20 68 5 97 -72 138 -66 35 -71 44 -46 80 l15 22 40 -21
c31 -15 39 -24 34 -39 -5 -15 3 -24 36 -41 41 -20 43 -20 56 -3 22 30 16 82
-12 110 -24 24 -140 84 -160 84 -5 -1 -24 -7 -40 -14z"/>
<path d="M1100 4109 c-38 -15 -138 -119 -145 -150 -9 -40 6 -63 113 -171 113
-115 139 -126 201 -85 40 26 103 98 114 130 8 22 -8 65 -36 95 l-21 22 -37
-36 c-36 -35 -37 -38 -22 -61 15 -22 14 -25 -7 -48 -26 -28 -39 -25 -70 17
l-22 30 62 63 c71 72 71 74 -4 143 -37 34 -88 65 -99 61 -1 0 -13 -5 -27 -10z
m37 -121 c29 -27 29 -38 -3 -62 -26 -18 -26 -18 -55 10 -27 28 -28 31 -13 52
19 28 41 28 71 0z"/>
<path d="M3855 4081 c-44 -27 -193 -183 -205 -215 -5 -15 -7 -38 -4 -50 7 -28
121 -141 150 -150 37 -11 75 12 167 102 101 98 121 130 112 172 -13 57 -126
160 -177 160 -7 0 -26 -8 -43 -19z m107 -98 c10 -9 18 -21 18 -27 0 -6 -43
-54 -95 -106 l-95 -95 -27 28 -28 27 95 95 c52 52 99 95 104 95 5 0 18 -7 28
-17z"/>
<path d="M2280 4083 c-257 -42 -485 -131 -685 -267 -125 -85 -302 -259 -391
-384 -130 -183 -225 -399 -271 -612 -15 -69 -18 -130 -18 -320 1 -205 3 -248
23 -333 144 -643 649 -1130 1286 -1239 104 -17 149 -20 321 -15 223 6 307 20
484 82 458 160 829 535 980 990 68 205 76 260 75 515 0 193 -3 239 -22 323
-71 322 -211 578 -436 802 -197 195 -385 312 -638 393 -180 58 -277 72 -497
71 -102 -1 -197 -4 -211 -6z m472 -72 c640 -110 1137 -602 1255 -1243 24 -132
24 -431 0 -551 -131 -649 -643 -1138 -1290 -1233 -146 -21 -400 -15 -532 15
-314 69 -576 217 -798 451 -434 456 -542 1138 -271 1709 144 305 430 589 734
729 277 128 607 173 902 123z"/>
<path d="M2243 3924 c-183 -31 -386 -114 -562 -232 -114 -75 -300 -262 -374
-374 -117 -176 -198 -376 -231 -567 -21 -124 -21 -378 -1 -497 86 -492 422
-909 882 -1094 54 -22 148 -52 208 -67 104 -26 122 -28 335 -28 213 0 231 2
335 28 572 145 991 592 1090 1161 20 117 20 375 0 492 -105 601 -586 1083
-1177 1179 -116 19 -392 18 -505 -1z m395 -540 c12 -8 22 -26 22 -39 0 -21 15
-28 197 -89 195 -65 197 -66 215 -46 38 41 91 35 124 -15 27 -41 4 -95 -53
-120 -1 0 4 -79 12 -175 8 -96 15 -183 15 -192 0 -10 5 -18 12 -18 21 0 48
-33 48 -58 0 -55 -62 -81 -104 -43 -21 18 -23 18 -103 -7 -77 -23 -82 -26 -87
-57 -11 -58 -80 -95 -130 -70 -24 13 -29 10 -115 -66 l-91 -80 7 -44 c7 -55
-13 -91 -60 -103 -66 -18 -126 34 -113 99 5 27 -1 32 -181 144 l-187 116 -38
-21 c-68 -38 -142 -4 -154 72 -6 34 17 98 34 98 4 0 13 4 21 9 11 7 9 24 -10
98 -21 84 -25 91 -53 99 -41 12 -56 52 -32 88 13 21 24 26 59 26 41 0 45 4
175 139 107 113 132 145 132 168 0 16 5 34 12 41 18 18 55 15 75 -6 16 -17 27
-18 131 -9 61 6 112 14 112 19 0 16 49 58 67 58 10 0 29 -7 41 -16z m-1253
-884 c311 -82 585 -241 838 -489 102 -99 173 -181 243 -276 l29 -40 -60 51
c-158 133 -288 217 -470 305 -225 109 -406 155 -647 166 l-138 6 0 160 0 159
48 -6 c26 -4 97 -20 157 -36z m2435 -119 l0 -158 -137 -6 c-169 -7 -278 -26
-420 -72 -242 -80 -543 -254 -722 -419 l-34 -31 23 35 c86 126 295 341 438
449 212 160 412 259 644 320 228 60 208 72 208 -118z m-2240 -252 c241 -54
493 -175 700 -334 67 -52 202 -176 197 -181 -2 -2 -35 16 -73 42 -87 57 -268
146 -393 191 -175 63 -390 102 -563 103 l-98 0 0 94 c0 52 2 101 5 108 7 18
79 10 225 -23z m2069 -91 l1 -88 -97 0 c-311 -1 -662 -109 -958 -295 l-90 -56
45 46 c244 253 644 457 995 508 107 16 102 21 104 -115z"/>
<path d="M2385 3309 c-69 -7 -82 -12 -98 -34 -10 -14 -24 -25 -31 -25 -8 0
-19 -45 -32 -125 -11 -69 -17 -125 -12 -125 15 0 328 292 328 306 0 16 -28 16
-155 3z"/>
<path d="M2650 3300 c0 -19 283 -310 302 -310 9 0 39 25 67 56 40 46 48 61 41
75 -6 10 -10 27 -10 38 0 16 -28 29 -187 82 -104 34 -194 64 -200 67 -7 2 -13
-1 -13 -8z"/>
<path d="M2387 3137 c-132 -119 -165 -153 -155 -163 7 -6 42 -17 78 -23 36 -7
74 -15 86 -17 16 -4 24 2 34 26 16 39 52 67 101 80 l37 10 6 68 c4 37 8 85 11
107 3 31 0 43 -13 51 -14 9 -44 -13 -185 -139z"/>
<path d="M2612 3272 c-14 -9 -36 -215 -23 -220 52 -18 108 -70 123 -112 3 -10
197 18 211 30 9 8 -266 303 -286 307 -7 2 -18 -1 -25 -5z"/>
<path d="M2077 3122 c-75 -75 -137 -145 -137 -155 0 -20 14 -21 128 -7 112 14
118 22 143 167 11 64 16 120 12 124 -5 5 -70 -53 -146 -129z"/>
<path d="M3027 3039 c-25 -28 -47 -62 -50 -75 -3 -17 19 -57 80 -150 47 -69
88 -122 93 -118 7 7 -16 373 -23 381 -1 1 -14 4 -28 8 -23 6 -32 -1 -72 -46z"/>
<path d="M2045 2947 c-88 -9 -91 -10 -113 -45 l-23 -35 21 -89 c22 -85 23 -88
51 -88 16 0 32 -1 36 -1 11 -2 142 233 143 254 0 9 -6 16 -12 15 -7 0 -53 -5
-103 -11z"/>
<path d="M2217 2944 c-3 -3 29 -76 71 -160 70 -141 79 -155 101 -152 19 2 33
18 60 69 l35 66 -32 37 c-28 32 -36 57 -35 104 1 6 -1 12 -2 12 -2 0 -39 7
-82 15 -86 16 -107 18 -116 9z"/>
<path d="M2798 2932 l-88 -15 0 -32 c0 -18 -11 -48 -24 -67 l-23 -35 66 -85
66 -85 35 12 34 11 37 149 c21 82 35 153 33 157 -7 10 -31 9 -136 -10z"/>
<path d="M2103 2803 l-71 -127 24 -29 c13 -16 24 -35 24 -43 0 -9 11 -14 28
-14 16 0 69 -3 118 -6 89 -7 90 -6 107 20 17 25 17 27 -58 176 -41 82 -81 150
-88 150 -6 0 -44 -58 -84 -127z"/>
<path d="M2942 2898 c-5 -18 -22 -86 -38 -151 l-28 -117 29 -30 30 -29 83 23
c46 13 84 26 86 27 1 2 6 18 12 34 9 28 4 39 -67 150 -43 66 -82 121 -88 123
-5 2 -14 -12 -19 -30z"/>
<path d="M2598 2757 c-33 -9 -38 -15 -39 -41 -1 -17 -6 -107 -12 -201 l-12
-170 25 -16 c25 -15 26 -14 117 65 82 71 92 83 86 105 -9 34 -6 61 8 88 10 19
5 30 -51 102 -34 45 -68 80 -74 80 -6 -1 -28 -6 -48 -12z"/>
<path d="M2459 2693 c-35 -66 -36 -69 -20 -96 15 -25 15 -30 -2 -59 -18 -32
-18 -32 19 -120 57 -136 62 -128 79 130 8 108 13 198 12 199 -1 1 -13 4 -27 7
-23 6 -28 0 -61 -61z"/>
<path d="M2074 2558 c-3 -11 -4 -21 -2 -22 1 -2 77 -50 168 -106 91 -57 174
-109 185 -116 16 -10 23 -10 37 0 17 12 15 19 -20 105 -31 77 -41 91 -59 91
-22 0 -56 25 -64 47 -2 6 -57 13 -121 16 -111 5 -118 4 -124 -15z"/>
<path d="M548 3623 c-24 -26 -123 -212 -116 -218 8 -8 469 -235 476 -235 7 0
52 82 52 95 0 3 -42 26 -92 51 -51 25 -95 48 -97 50 -9 8 20 54 34 54 8 0 55
-20 103 -44 l89 -44 25 52 26 53 -107 52 c-65 33 -116 52 -131 49 -19 -2 -30
5 -45 27 -24 36 -116 85 -160 85 -21 0 -40 -9 -57 -27z m111 -115 c31 -17 58
-33 60 -34 6 -6 -21 -64 -30 -64 -5 0 -38 14 -73 32 l-64 31 16 34 c9 18 20
33 25 33 5 0 35 -14 66 -32z"/>
<path d="M4225 3548 c-90 -46 -101 -79 -56 -173 l30 -65 -22 -15 c-35 -24 -56
-18 -74 21 -17 35 -17 36 5 54 l23 19 -21 40 c-24 48 -37 50 -78 16 -47 -39
-48 -67 -9 -150 57 -120 93 -137 187 -90 95 48 109 87 65 175 -32 63 -31 76 4
88 33 12 43 5 60 -39 7 -20 6 -30 -6 -41 -13 -14 -12 -20 6 -57 12 -22 26 -41
32 -41 24 0 69 59 69 90 0 34 -50 140 -80 170 -26 26 -83 25 -135 -2z"/>
<path d="M393 2669 c-22 -11 -54 -39 -70 -61 -24 -35 -28 -51 -28 -108 0 -57
4 -73 29 -108 65 -94 207 -111 290 -34 33 31 65 96 66 132 0 74 -53 160 -117
186 -48 20 -121 17 -170 -7z m77 -69 c0 -50 -4 -55 -34 -44 -20 8 -20 18 0 60
23 48 34 42 34 -16z m75 -7 c4 -17 1 -29 -7 -34 -29 -19 -38 -9 -38 43 0 50 1
51 19 34 11 -10 22 -29 26 -43z m-149 12 c-11 -35 -29 -45 -42 -23 -6 9 36 58
50 58 2 0 -2 -16 -8 -35z m213 -4 c6 -10 7 -21 4 -25 -15 -15 -30 -4 -40 29
-10 32 -10 34 8 25 10 -6 23 -19 28 -29z m-238 -61 c5 0 9 -18 9 -39 0 -34 -3
-38 -20 -34 -30 8 -43 30 -36 59 5 18 12 24 22 20 9 -3 20 -6 25 -6z m273 -16
c8 -29 -5 -49 -34 -57 -17 -4 -20 0 -20 33 0 36 8 47 36 49 7 1 15 -11 18 -25z
m-174 -40 c0 -33 -2 -35 -27 -32 -23 2 -29 8 -31 36 -3 30 -1 32 27 32 29 0
31 -3 31 -36z m88 4 c-2 -28 -8 -34 -30 -36 -26 -3 -28 -1 -28 32 0 33 2 36
31 36 28 0 30 -2 27 -32z m-187 -60 c18 -15 42 -68 31 -68 -13 0 -62 55 -62
68 0 15 12 15 31 0z m259 3 c0 -12 -49 -71 -59 -71 -14 0 13 69 29 74 26 7 30
6 30 -3z m-160 -47 c0 -44 -18 -42 -37 4 -13 31 -12 32 12 32 22 0 25 -4 25
-36z m78 29 c-35 -74 -48 -81 -48 -28 0 31 3 35 26 35 14 0 24 -3 22 -7z"/>
<path d="M4440 2679 c-33 -13 -78 -57 -97 -93 -20 -39 -20 -133 0 -171 20 -39
65 -81 100 -94 55 -21 129 -14 179 18 159 101 87 353 -101 350 -31 0 -67 -5
-81 -10z m56 -126 c-8 -9 -46 8 -46 20 0 7 10 28 23 47 l22 35 3 -49 c2 -26 1
-50 -2 -53z m67 68 c21 -36 22 -57 1 -65 -26 -10 -34 2 -34 50 0 51 9 55 33
15z m-136 -16 c-11 -37 -14 -40 -36 -26 -11 7 -9 14 12 35 34 34 37 33 24 -9z
m203 10 c18 -20 21 -28 12 -37 -14 -14 -23 -6 -40 35 -14 34 -3 35 28 2z
m-236 -71 c11 -4 16 -19 16 -44 0 -33 -3 -37 -20 -33 -29 8 -39 25 -33 56 6
28 11 31 37 21z m284 -29 c4 -29 -10 -45 -40 -45 -13 0 -18 8 -18 30 0 17 7
33 18 39 25 15 37 8 40 -24z m-178 -31 c0 -33 -2 -35 -27 -32 -23 2 -29 8 -31
36 -3 30 -1 32 27 32 29 0 31 -3 31 -36z m88 4 c-2 -28 -8 -34 -30 -36 -26 -3
-28 -1 -28 32 0 33 2 36 31 36 28 0 30 -2 27 -32z m-172 -62 c1 0 6 -16 12
-34 10 -30 10 -32 -8 -22 -20 11 -50 48 -50 63 0 6 40 0 46 -7z m254 9 c0 -9
-62 -75 -71 -75 -12 0 11 52 30 68 14 12 41 17 41 7z m-170 -51 c0 -40 -12
-38 -35 7 -15 28 -15 29 10 29 22 0 25 -4 25 -36z m80 31 c0 -14 -32 -65 -40
-65 -11 0 -14 53 -3 63 8 8 43 9 43 2z"/>
<path d="M655 1718 c-77 -38 -142 -72 -144 -74 -5 -5 20 -63 30 -70 5 -2 30 6
57 20 37 19 52 22 61 13 18 -18 13 -26 -39 -52 -27 -14 -50 -30 -50 -35 0 -17
23 -60 32 -60 12 0 270 128 281 140 11 10 -20 70 -36 70 -6 0 -27 -9 -45 -20
-38 -24 -58 -25 -65 -6 -7 18 6 29 56 49 20 9 37 21 37 27 0 11 -28 71 -33 69
-1 0 -65 -32 -142 -71z"/>
<path d="M4245 1708 c-34 -30 -43 -86 -20 -121 19 -29 126 -87 159 -87 31 0
66 28 82 65 22 53 3 88 -68 130 -70 41 -115 45 -153 13z m113 -78 c28 -17 45
-50 25 -50 -20 0 -93 44 -93 56 0 20 29 17 68 -6z"/>
<path d="M4072 1404 c-12 -8 -22 -22 -22 -29 0 -8 -16 -29 -35 -46 -19 -18
-35 -38 -35 -46 0 -7 -4 -13 -9 -13 -5 0 -19 -13 -30 -29 l-21 -29 77 -62
c118 -95 120 -96 143 -75 32 29 23 47 -45 98 -36 26 -65 52 -65 57 0 21 30 8
90 -40 l63 -51 24 22 c12 13 23 27 23 33 0 6 -25 31 -55 55 -67 54 -79 67 -66
75 5 4 38 -16 72 -44 34 -27 66 -50 72 -50 9 0 46 40 47 51 0 12 -172 139
-189 139 -9 0 -27 -7 -39 -16z"/>
<path d="M888 1383 c-16 -15 -15 -19 13 -50 37 -43 28 -64 -11 -23 -36 38 -77
40 -119 4 -40 -34 -43 -83 -6 -112 14 -11 25 -24 25 -29 0 -6 9 -18 19 -27 19
-17 22 -16 98 42 43 33 84 66 91 75 17 21 7 57 -29 101 -33 39 -56 45 -81 19z
m-32 -124 c10 -17 -23 -46 -38 -31 -8 8 -8 15 2 27 15 18 26 19 36 4z"/>
<path d="M1120 1125 c-22 -24 -23 -26 -6 -44 17 -19 16 -20 -30 -40 -26 -12
-58 -24 -71 -27 -13 -4 -29 -16 -35 -27 -10 -19 -5 -27 43 -69 l54 -47 27 26
28 27 -20 21 -21 22 63 23 c35 13 72 31 83 41 19 19 19 19 -30 69 -27 27 -52
50 -55 50 -4 0 -17 -11 -30 -25z"/>
<path d="M3736 1056 c-43 -40 -45 -64 -10 -105 22 -27 32 -31 76 -31 53 0 62
-16 20 -35 -27 -12 -28 -36 -3 -59 24 -22 48 -15 86 24 37 39 39 89 5 125 -19
20 -33 25 -72 25 -26 0 -48 5 -48 10 0 6 6 10 14 10 24 0 29 19 12 45 -22 33
-38 31 -80 -9z"/>
<path d="M1331 876 l-91 -135 31 -22 c17 -12 34 -18 38 -13 5 5 47 67 95 139
l87 129 -23 18 c-13 10 -28 18 -35 18 -6 0 -52 -60 -102 -134z"/>
<path d="M3463 943 c-44 -30 -19 -72 28 -47 31 16 36 33 17 52 -15 15 -18 15
-45 -5z"/>
<path d="M3501 881 c-15 -11 -22 -24 -18 -34 15 -41 120 -197 131 -197 8 0 23
8 35 18 l22 17 -64 105 c-35 57 -68 105 -73 107 -5 1 -20 -6 -33 -16z"/>
<path d="M1614 790 c-50 -20 -112 -147 -95 -192 13 -34 44 -58 82 -64 44 -7
81 21 114 87 42 81 31 139 -30 165 -39 16 -42 16 -71 4z m46 -85 c0 -20 -29
-78 -44 -87 -33 -21 -21 42 16 90 14 17 28 15 28 -3z"/>
<path d="M3237 740 c-14 -11 -39 -20 -55 -20 -16 0 -35 -7 -42 -15 -6 -8 -15
-14 -18 -13 -19 2 -40 -3 -55 -15 -16 -11 -15 -19 21 -112 21 -55 42 -108 45
-117 5 -15 11 -16 37 -7 16 6 32 14 35 19 2 4 -9 42 -25 84 -35 90 -34 86 -16
86 8 0 26 -30 42 -72 15 -40 31 -77 35 -81 5 -7 69 17 69 26 0 2 -11 32 -25
67 -14 35 -25 72 -25 82 0 38 19 15 45 -54 15 -40 31 -76 34 -81 8 -8 71 11
71 22 0 19 -71 185 -86 202 -22 25 -55 24 -87 -1z"/>
<path d="M2186 646 c-4 -20 -11 -36 -16 -36 -13 0 -24 -60 -13 -71 6 -6 6 -30
2 -57 -12 -71 -11 -89 7 -107 25 -25 78 -16 82 13 2 13 0 31 -4 40 -10 25 -4
85 11 97 17 14 28 62 15 70 -5 3 -10 22 -10 41 0 20 -5 34 -12 34 -7 0 -23 3
-34 6 -18 5 -22 0 -28 -30z"/>
<path d="M2510 661 c0 -5 -3 -16 -6 -25 -10 -26 39 -19 66 9 l23 25 -41 0
c-23 0 -42 -4 -42 -9z"/>
<path d="M2450 481 c0 -83 4 -122 13 -129 6 -5 47 -10 90 -10 l77 -1 0 130 0
129 -40 0 -40 0 0 -94 c0 -52 -4 -97 -9 -100 -11 -7 -21 53 -21 132 l0 62 -35
0 -35 0 0 -119z"/>
</g>
</svg>
