<?xml version="1.0" standalone="no"?>
<!DOCTYPE svg PUBLIC "-//W3C//DTD SVG 20010904//EN"
 "http://www.w3.org/TR/2001/REC-SVG-20010904/DTD/svg10.dtd">
<svg version="1.0" xmlns="http://www.w3.org/2000/svg"
 width="500.000000pt" height="500.000000pt" viewBox="0 0 500.000000 500.000000"
 preserveAspectRatio="xMidYMid meet">

<g transform="translate(0.000000,500.000000) scale(0.100000,-0.100000)"
fill="#000000" stroke="none">
<path d="M2266 4989 c-420 -44 -809 -182 -1142 -404 -176 -118 -248 -177 -399
-329 -389 -391 -621 -862 -707 -1431 -17 -117 -17 -508 1 -635 75 -545 306
-1031 673 -1415 489 -513 1186 -798 1883 -772 566 22 1094 220 1511 569 497
414 807 975 896 1618 19 139 16 486 -6 635 -58 403 -184 738 -402 1065 -464
698 -1258 1117 -2099 1109 -71 -1 -165 -5 -209 -10z m460 -100 c487 -47 931
-234 1323 -557 390 -323 689 -822 794 -1327 41 -195 51 -298 51 -515 1 -288
-32 -490 -125 -764 -116 -344 -303 -646 -567 -914 -193 -196 -388 -336 -647
-463 -641 -315 -1372 -331 -2020 -45 -452 199 -833 534 -1091 957 -323 529
-426 1210 -274 1819 222 893 950 1590 1849 1770 80 16 187 33 236 38 129 13
344 14 471 1z"/>
<path d="M2275 4083 c-260 -41 -525 -151 -727 -303 -278 -209 -489 -512 -582
-835 -49 -173 -59 -269 -53 -496 7 -280 43 -424 162 -664 217 -435 634 -755
1111 -852 128 -26 502 -26 624 0 637 136 1112 608 1255 1247 22 99 31 406 16
524 -80 598 -490 1106 -1051 1301 -198 68 -251 77 -500 80 -124 2 -238 1 -255
-2z m525 -78 c475 -106 856 -399 1070 -825 101 -202 148 -393 157 -640 5 -140
2 -183 -16 -289 -74 -432 -315 -798 -686 -1040 -167 -110 -368 -186 -580 -223
-154 -26 -417 -21 -560 11 -313 69 -573 216 -795 447 -200 210 -325 447 -392
746 -20 90 -23 130 -23 313 0 234 9 297 72 484 69 207 185 400 337 558 245
257 534 411 881 469 110 18 433 12 535 -11z"/>
<path d="M655 1718 c-77 -38 -142 -72 -144 -74 -5 -5 20 -63 30 -70 5 -2 30 6
57 20 37 19 52 22 61 13 18 -18 13 -26 -39 -52 -27 -14 -50 -30 -50 -35 0 -17
23 -60 32 -60 12 0 270 128 281 140 11 10 -20 70 -36 70 -6 0 -27 -9 -45 -20
-38 -24 -58 -25 -65 -6 -7 18 8 31 56 51 20 8 37 20 37 26 0 10 -28 69 -33 68
-1 0 -65 -32 -142 -71z"/>
<path d="M4257 1719 c-22 -13 -47 -61 -47 -92 0 -33 40 -73 102 -102 65 -30
88 -31 122 -4 47 37 51 112 8 146 -65 51 -146 74 -185 52z m101 -89 c31 -19
44 -50 21 -50 -21 0 -89 44 -89 57 0 19 30 16 68 -7z"/>
<path d="M4072 1404 c-12 -8 -22 -22 -22 -29 0 -8 -16 -29 -35 -46 -19 -18
-35 -36 -35 -40 0 -5 -11 -19 -25 -33 -14 -14 -25 -31 -25 -39 0 -11 130 -122
178 -151 16 -10 52 20 52 43 -1 9 -30 37 -65 64 -36 26 -65 52 -65 57 0 21 30
8 90 -40 l63 -51 24 22 c12 13 23 28 23 34 0 6 -22 27 -48 48 -62 46 -86 73
-74 81 6 3 38 -17 73 -44 35 -27 69 -50 74 -49 6 0 18 11 29 25 l18 26 -36 30
c-79 65 -141 108 -156 108 -9 0 -26 -7 -38 -16z"/>
<path d="M886 1381 c-16 -18 -16 -20 2 -32 23 -17 44 -54 35 -63 -4 -3 -19 7
-34 24 -35 38 -76 40 -118 4 -40 -34 -43 -83 -6 -112 14 -11 25 -24 25 -29 0
-6 9 -18 19 -27 19 -17 23 -16 100 43 44 34 85 70 91 81 12 23 1 55 -35 98
-31 36 -54 40 -79 13z m-30 -122 c10 -17 -23 -46 -38 -31 -8 8 -8 15 2 27 15
18 26 19 36 4z"/>
<path d="M1120 1125 c-22 -24 -23 -26 -6 -44 17 -19 16 -20 -30 -40 -26 -12
-57 -24 -69 -27 -11 -3 -27 -15 -34 -27 -13 -20 -10 -25 40 -69 l54 -47 27 26
c28 27 28 27 8 45 -11 10 -20 20 -20 22 0 2 28 14 63 26 34 13 71 31 82 41 19
19 19 19 -30 69 -27 27 -52 50 -55 50 -4 0 -17 -11 -30 -25z"/>
<path d="M3735 1055 c-32 -29 -36 -39 -30 -62 12 -50 43 -73 98 -73 52 0 61
-16 19 -35 -27 -12 -28 -36 -3 -59 24 -22 48 -15 86 24 37 39 39 89 5 125 -19
20 -33 25 -72 25 -26 0 -48 5 -48 10 0 6 6 10 14 10 24 0 29 19 12 45 -22 33
-38 31 -81 -10z"/>
<path d="M1336 883 c-47 -71 -86 -134 -86 -140 0 -7 13 -19 29 -27 l28 -15 92
137 92 136 -23 18 c-13 10 -28 18 -34 18 -7 0 -50 -57 -98 -127z"/>
<path d="M3463 943 c-44 -30 -19 -72 28 -47 31 16 36 33 17 52 -15 15 -18 15
-45 -5z"/>
<path d="M3503 883 c-13 -8 -23 -20 -23 -25 0 -19 122 -208 135 -208 7 0 22 8
34 18 l22 17 -66 108 c-37 59 -70 107 -73 106 -4 0 -17 -7 -29 -16z"/>
<path d="M1614 790 c-46 -18 -94 -105 -94 -169 0 -46 32 -79 81 -87 45 -8 84
23 115 90 39 85 29 136 -31 162 -39 16 -42 16 -71 4z m43 -100 c-7 -33 -35
-80 -48 -80 -24 0 -12 53 23 98 18 22 31 13 25 -18z"/>
<path d="M3237 740 c-14 -11 -39 -20 -55 -20 -16 0 -35 -7 -42 -15 -6 -8 -15
-14 -18 -13 -19 2 -40 -3 -55 -15 -16 -11 -15 -19 21 -112 21 -55 42 -108 45
-117 5 -15 11 -16 37 -7 16 6 32 14 35 19 2 4 -9 42 -26 85 -20 53 -26 82 -20
88 10 10 52 -71 67 -128 3 -14 10 -28 15 -31 7 -4 69 22 69 29 0 2 -11 32 -25
67 -14 35 -25 72 -25 82 0 38 19 15 45 -54 15 -40 31 -76 34 -81 8 -8 71 11
71 22 0 19 -71 185 -86 202 -22 25 -55 24 -87 -1z"/>
<path d="M2186 646 c-4 -20 -11 -36 -15 -36 -13 0 -22 -61 -12 -74 5 -7 5 -33
0 -66 -12 -70 -5 -98 25 -106 53 -13 81 17 60 64 -10 25 -4 86 10 97 17 14 28
62 16 70 -5 3 -10 22 -10 41 0 20 -5 34 -12 34 -7 0 -23 3 -34 6 -18 5 -22 0
-28 -30z"/>
<path d="M2510 661 c0 -5 -3 -16 -6 -25 -10 -26 39 -19 66 9 l23 25 -41 0
c-23 0 -42 -4 -42 -9z"/>
<path d="M2450 481 c0 -83 4 -122 13 -129 6 -5 47 -10 90 -10 l77 -1 0 130 0
129 -40 0 -40 0 0 -94 c0 -53 -4 -98 -10 -101 -5 -3 -11 -1 -11 4 -1 6 -3 16
-4 21 -1 6 -3 46 -4 90 l-1 80 -35 0 -35 0 0 -119z"/>
</g>
</svg>
