<?xml version="1.0" standalone="no"?>
<!DOCTYPE svg PUBLIC "-//W3C//DTD SVG 20010904//EN"
 "http://www.w3.org/TR/2001/REC-SVG-20010904/DTD/svg10.dtd">
<svg version="1.0" xmlns="http://www.w3.org/2000/svg"
 width="500.000000pt" height="500.000000pt" viewBox="0 0 500.000000 500.000000"
 preserveAspectRatio="xMidYMid meet">

<g transform="translate(0.000000,500.000000) scale(0.100000,-0.100000)"
fill="#000000" stroke="none">
<path d="M2315 4994 c-16 -2 -73 -9 -125 -15 -614 -70 -1216 -400 -1613 -884
-488 -594 -674 -1338 -526 -2095 75 -377 250 -749 507 -1075 73 -92 277 -296
372 -371 453 -358 1008 -554 1570 -554 562 0 1117 196 1570 554 95 75 299 279
372 371 300 380 472 785 540 1270 17 120 16 505 -1 620 -58 395 -188 744 -389
1050 -401 611 -1016 1002 -1747 1111 -95 14 -467 27 -530 18z m104 -526 c28
-242 30 -224 -25 -233 -25 -3 -48 -4 -51 -1 -3 3 -18 -1 -34 -9 -36 -19 -109
-19 -136 0 -12 8 -26 30 -32 48 -14 45 -45 313 -37 332 4 11 20 15 56 15 41 0
50 -3 50 -17 1 -33 38 -304 42 -309 3 -2 19 -1 36 2 38 8 38 6 18 164 -25 194
-28 174 24 181 25 3 50 7 56 7 7 1 19 -65 33 -180z m463 142 c4 0 5 -7 1 -16
-5 -15 -3 -15 20 1 18 11 36 15 52 11 23 -6 25 -10 20 -44 -10 -60 -12 -62
-54 -62 -47 0 -42 10 -72 -162 -24 -141 -21 -137 -98 -122 -22 5 -31 12 -31
25 0 21 58 356 64 375 3 8 18 9 48 3 24 -4 46 -8 50 -9z m-1208 -31 c26 -20
56 -68 56 -88 0 -8 -81 -51 -95 -51 -1 0 -8 14 -15 30 -7 17 -18 30 -26 30
-18 0 -64 -22 -64 -30 0 -8 159 -342 166 -349 5 -5 63 20 70 30 2 5 -5 27 -16
50 -12 22 -20 42 -18 44 2 1 25 12 51 23 l48 21 25 -54 c28 -60 26 -101 -4
-128 -26 -23 -163 -87 -188 -87 -41 0 -70 39 -158 219 -121 245 -120 256 19
325 82 41 112 44 149 15z m1780 -150 c35 -17 73 -40 82 -50 20 -22 22 -75 5
-108 l-11 -21 -45 22 c-37 18 -44 25 -39 44 5 18 -1 26 -25 38 -41 22 -48 20
-65 -13 -18 -33 -15 -36 54 -71 84 -41 97 -79 56 -166 -26 -55 -67 -94 -100
-94 -30 0 -157 63 -180 88 -15 17 -18 32 -13 68 7 66 18 73 72 44 36 -20 42
-27 34 -41 -5 -10 -9 -20 -9 -23 0 -7 81 -49 85 -44 9 11 25 49 25 61 0 8 -18
22 -41 32 -99 45 -119 95 -74 185 45 88 85 99 189 49z m-2219 -389 l59 -60
-67 -68 -67 -68 35 -34 35 -34 24 23 c24 22 24 25 9 48 -16 24 -15 26 24 65
l41 40 26 -38 c40 -59 35 -92 -24 -157 -63 -69 -110 -93 -150 -77 -15 6 -73
58 -129 114 -96 98 -101 105 -101 145 0 39 5 48 63 106 92 92 126 92 222 -5z
m2776 -10 c100 -98 95 -127 -45 -267 -91 -91 -107 -103 -138 -103 -39 0 -96
36 -142 90 -65 77 -57 102 67 229 137 139 163 144 258 51z m-1297 -356 c5 -16
10 -34 12 -41 1 -6 122 -51 269 -100 244 -80 267 -87 276 -70 14 24 62 47 100
47 22 0 41 -10 66 -35 33 -33 35 -39 30 -82 -5 -48 -40 -93 -73 -93 -17 0 -18
24 6 -275 12 -148 24 -251 30 -253 6 -2 24 -15 40 -29 62 -52 25 -147 -57
-147 -26 0 -42 7 -57 25 l-21 25 -118 -35 c-108 -32 -117 -36 -117 -59 0 -39
-30 -92 -62 -108 -38 -20 -102 -20 -131 -1 -22 14 -27 11 -150 -100 -109 -98
-126 -117 -117 -133 17 -32 12 -105 -10 -132 -46 -59 -144 -63 -193 -8 -25 28
-28 39 -26 88 l3 56 -215 133 c-118 74 -233 145 -256 159 l-41 25 -37 -26
c-69 -46 -165 -28 -205 38 -40 65 -15 171 45 199 30 14 30 22 6 112 -11 39
-25 90 -31 114 -9 34 -15 42 -34 42 -30 0 -76 52 -76 87 0 38 54 87 88 80 15
-3 34 -7 42 -9 9 -1 96 80 206 192 176 179 191 197 181 218 -14 30 5 69 40 83
33 12 80 -4 89 -33 4 -15 12 -18 32 -14 15 3 87 11 159 17 l133 12 17 36 c24
49 75 67 118 42 16 -9 34 -30 39 -47z m-2031 -55 c54 -27 87 -58 87 -81 0 -15
4 -16 23 -7 19 8 41 1 132 -42 61 -29 112 -54 114 -56 7 -5 -42 -103 -51 -103
-5 0 -49 20 -98 45 -49 25 -92 45 -95 45 -2 0 -11 -13 -20 -30 l-15 -30 100
-50 100 -50 -25 -50 c-14 -28 -28 -50 -30 -50 -3 0 -113 54 -245 120 l-240
120 46 93 c59 119 86 147 136 147 21 0 58 -10 81 -21z m3683 -74 c30 -30 84
-141 84 -173 0 -23 -58 -92 -77 -92 -5 0 -19 20 -30 44 -20 40 -20 45 -5 59
15 15 15 19 -1 52 -18 39 -32 43 -64 20 l-22 -15 30 -65 c33 -69 33 -109 1
-138 -22 -20 -122 -67 -144 -67 -30 0 -80 53 -109 115 -39 81 -38 109 7 151
19 19 40 34 45 34 5 0 19 -20 31 -45 l22 -45 -22 -16 -22 -15 20 -40 c11 -21
23 -39 26 -39 14 0 64 32 64 41 0 5 -11 32 -25 59 -45 89 -27 137 68 180 58
27 93 25 123 -5z m-3476 -1022 c431 -94 855 -331 1223 -683 106 -101 250 -266
337 -385 l44 -60 -70 61 c-253 222 -579 417 -879 527 -250 91 -455 129 -704
131 l-164 1 7 74 c3 41 6 141 6 223 l0 150 43 -7 c23 -4 94 -18 157 -32z
m3420 -90 c0 -71 3 -172 7 -226 l6 -98 -89 7 c-113 8 -314 -10 -469 -42 -401
-85 -831 -307 -1185 -614 -83 -72 -84 -73 49 100 76 99 323 349 431 436 354
286 702 456 1096 538 172 36 154 47 154 -101z m-3215 -413 c479 -79 948 -316
1290 -653 l110 -108 -91 60 c-248 163 -507 277 -800 352 -195 49 -347 69 -535
69 l-149 0 0 43 c0 24 3 92 7 150 7 125 -10 117 168 87z m2975 -32 c0 -29 3
-96 6 -149 l7 -96 -204 -6 c-261 -7 -461 -45 -725 -139 -154 -54 -428 -191
-550 -274 -90 -61 -95 -63 -64 -27 195 221 597 486 920 606 160 59 475 134
578 136 l32 1 0 -52z m-2947 -806 c43 -44 60 -86 49 -125 -13 -47 -74 -115
-129 -143 -45 -22 -56 -24 -90 -15 -24 7 -52 26 -75 53 -41 44 -46 62 -24 75
8 4 57 50 110 101 52 50 101 92 108 92 8 0 30 -17 51 -38z m2837 -9 c0 -6 -11
-25 -25 -41 -28 -34 -17 -56 14 -28 29 27 85 20 124 -14 66 -57 72 -117 17
-172 -24 -24 -37 -29 -67 -26 -36 3 -38 5 -38 38 0 28 4 35 19 35 27 0 43 29
27 49 -19 23 -41 20 -71 -9 l-26 -25 -63 64 -64 64 53 56 c52 55 52 55 76 38
13 -9 24 -22 24 -29z m-257 -253 c36 -28 61 -99 55 -155 -3 -25 -3 -45 -1 -45
3 0 18 10 35 21 25 18 32 19 39 8 30 -44 30 -44 -49 -101 -100 -73 -107 -68
-107 72 0 89 -2 102 -22 122 -29 28 -41 16 -25 -25 11 -29 10 -33 -10 -49 -30
-23 -29 -23 -55 15 -34 50 -30 89 12 126 42 37 90 41 128 11z m-2346 -56 c67
-32 79 -89 32 -155 -25 -36 -34 -36 -82 -4 -20 14 -42 23 -47 20 -16 -10 6
-41 40 -55 33 -14 37 -26 14 -55 -14 -19 -15 -19 -48 -1 -95 51 -110 106 -52
190 52 75 82 88 143 60z m2018 -141 c39 -40 85 -136 92 -193 5 -45 3 -51 -25
-79 -41 -42 -97 -43 -133 -3 -34 37 -63 88 -83 150 -15 43 -16 58 -6 87 22 66
106 86 155 38z m-1678 -48 c18 -12 22 -21 17 -38 -12 -41 -25 -49 -45 -31 -27
24 -36 9 -16 -25 24 -41 21 -75 -9 -110 -29 -35 -67 -40 -113 -17 -44 23 -54
39 -40 70 14 30 20 31 59 11 28 -14 30 -14 30 2 0 10 -7 27 -15 37 -23 30 -18
74 11 103 21 21 32 24 61 20 19 -4 46 -13 60 -22z m385 -64 c6 -5 -35 -163
-78 -303 -7 -22 -20 -22 -58 -3 -15 8 -32 13 -36 10 -16 -10 -61 19 -67 43 -9
37 4 117 27 162 24 47 57 64 96 50 31 -12 34 -12 34 -1 0 5 4 21 10 36 8 22
14 24 37 19 16 -4 31 -9 35 -13z m931 -12 c51 -39 55 -137 10 -208 l-15 -24
40 6 c35 6 40 4 46 -16 11 -41 7 -44 -85 -66 -75 -19 -93 -20 -100 -9 -14 21
-10 48 10 76 30 43 55 125 47 155 -10 40 -36 35 -36 -7 0 -28 -4 -35 -25 -40
-35 -9 -42 -3 -50 43 -8 49 6 78 48 96 45 20 80 18 110 -6z m-624 -125 c27
-22 31 -32 31 -74 0 -60 -13 -72 -74 -64 -38 6 -46 4 -46 -9 0 -20 40 -32 74
-23 30 7 39 -4 30 -38 -7 -30 -39 -39 -95 -27 -66 15 -89 44 -89 113 0 70 21
125 52 138 43 17 85 11 117 -16z"/>
<path d="M1067 3992 c-23 -25 -22 -31 10 -64 l27 -28 28 27 28 27 -27 28 c-31
33 -44 35 -66 10z"/>
<path d="M3835 3900 c-98 -98 -99 -99 -80 -120 10 -11 25 -20 34 -20 9 0 56
40 105 89 91 92 100 111 61 137 -19 13 -28 6 -120 -86z"/>
<path d="M2495 3625 c-5 -2 -69 -9 -142 -15 -126 -12 -132 -13 -137 -37 -4
-13 -19 -29 -34 -35 -15 -7 -28 -13 -30 -14 -8 -5 -58 -335 -51 -339 4 -3 87
68 186 156 283 257 275 248 268 270 -6 17 -32 24 -60 14z"/>
<path d="M2708 3598 c-7 -18 381 -422 408 -426 21 -3 62 34 138 124 25 31 25
33 10 69 -8 21 -13 43 -10 51 3 9 -68 37 -257 100 -144 48 -267 89 -273 91 -7
2 -14 -2 -16 -9z"/>
<path d="M2346 3374 c-124 -113 -226 -211 -226 -219 0 -8 1 -15 3 -15 2 0 61
-11 132 -25 129 -25 144 -24 145 10 0 6 14 28 32 49 34 41 97 75 139 76 26 0
26 0 33 108 4 59 9 127 12 152 6 42 4 47 -19 57 -23 11 -37 0 -251 -193z"/>
<path d="M2658 3563 c-22 -6 -25 -19 -33 -138 -3 -55 -8 -116 -11 -137 -5 -34
-3 -37 25 -43 48 -10 106 -59 131 -110 20 -41 26 -46 49 -42 14 3 76 13 136
22 61 10 116 23 122 29 10 9 -31 58 -182 216 -107 113 -200 206 -207 206 -7 1
-21 0 -30 -3z"/>
<path d="M1916 3348 c-102 -106 -186 -197 -186 -203 1 -30 16 -32 152 -16 122
14 140 19 153 39 9 12 22 22 29 22 10 0 21 49 40 168 14 92 26 170 26 175 0
27 -51 -16 -214 -185z"/>
<path d="M3226 3241 c-97 -109 -98 -104 36 -308 61 -93 112 -170 114 -172 2
-3 9 0 15 6 8 8 7 73 -5 235 -20 272 -23 288 -44 294 -9 3 -24 9 -32 13 -11 6
-34 -12 -84 -68z"/>
<path d="M1882 3111 l-134 -16 -13 -31 c-7 -17 -20 -34 -29 -37 -21 -8 -21
-12 15 -148 28 -104 33 -117 52 -116 12 1 33 -2 47 -5 24 -6 30 3 123 168 87
154 108 207 80 203 -4 -1 -68 -9 -141 -18z"/>
<path d="M2114 3107 c-2 -7 41 -106 96 -220 l101 -207 34 0 c32 0 36 4 83 92
l50 92 -37 42 c-37 43 -61 99 -61 146 0 23 -5 25 -117 46 -138 26 -142 26
-149 9z"/>
<path d="M2960 3099 c-58 -10 -119 -21 -136 -24 -29 -5 -32 -9 -36 -56 -4 -34
-14 -63 -35 -91 l-30 -42 90 -113 c97 -123 89 -119 168 -97 13 3 30 58 69 214
29 115 49 213 45 219 -8 13 -4 13 -135 -10z"/>
<path d="M3111 3064 c-53 -204 -97 -394 -90 -394 4 0 24 -16 43 -36 l36 -37
115 33 c83 25 115 38 115 49 0 9 7 29 15 45 16 29 15 30 -87 185 -56 86 -110
165 -119 175 -17 18 -18 18 -28 -20z"/>
<path d="M1958 2918 l-97 -172 25 -29 c14 -16 28 -43 31 -59 3 -15 8 -30 12
-32 3 -2 78 -6 166 -10 l160 -6 21 32 20 33 -100 207 c-81 165 -105 207 -121
207 -16 0 -41 -37 -117 -171z"/>
<path d="M2680 2865 c-14 -8 -42 -17 -62 -20 -36 -6 -38 -9 -38 -43 0 -21 -7
-131 -15 -247 -20 -291 -21 -277 19 -296 l34 -15 126 110 c99 88 124 115 120
131 -17 65 -16 95 4 128 l20 34 -85 109 c-46 60 -87 112 -91 116 -4 4 -18 0
-32 -7z"/>
<path d="M2444 2767 l-51 -92 19 -30 c24 -39 23 -66 -4 -100 l-21 -27 33 -82
c53 -128 70 -166 78 -166 27 1 32 27 47 250 8 129 16 254 19 277 3 39 1 43
-27 52 -16 6 -33 11 -36 11 -3 0 -29 -42 -57 -93z"/>
<path d="M1916 2574 c-4 -15 -6 -27 -4 -28 2 -1 117 -73 256 -159 249 -155
253 -157 277 -141 14 9 25 19 25 23 0 4 -22 58 -49 121 l-49 114 -44 11 c-33
8 -46 17 -58 41 -13 28 -21 32 -65 38 -27 3 -102 6 -166 6 l-117 0 -6 -26z"/>
<path d="M566 3508 c-9 -12 -16 -27 -16 -33 0 -6 30 -26 67 -44 63 -31 68 -32
80 -15 7 10 13 28 13 40 0 21 -7 25 -116 71 -7 2 -19 -6 -28 -19z"/>
<path d="M1007 1052 c-61 -62 -67 -72 -39 -72 40 0 133 94 117 120 -11 17 -19
12 -78 -48z"/>
<path d="M1310 795 c-10 -12 -10 -19 -2 -27 15 -15 48 14 38 31 -10 15 -21 14
-36 -4z"/>
<path d="M3300 645 c0 -25 58 -145 69 -145 19 0 12 48 -16 105 -26 52 -53 73
-53 40z"/>
<path d="M1936 469 c-19 -28 -22 -83 -4 -77 19 7 43 77 31 89 -7 7 -16 4 -27
-12z"/>
<path d="M2306 424 c-7 -19 1 -34 19 -34 15 0 24 19 18 38 -6 17 -30 15 -37
-4z"/>
</g>
</svg>
